# xmcd CD database file
#
# Track frame offsets:
#	150
#	5525
#	14525
#	24312
#	34375
#	48212
#	58387
#	71862
#	83925
#	97475
#	107425
#	116950
#
# Disc length: 1694 seconds
#
# Revision: 0
# Processed by: cddbd v1.5.1PL2 Copyright (c) Steve Scherf et al.
# Submitted via: CDex 1.51
#
DISCID=aa069c0c
DTITLE=Dusty Spittle - New Zealands Country Heritage
DYEAR=1900
DGENRE=Country
TTITLE0=This Highway
TTITLE1=A Hundred Years Ago
TTITLE2=The Kingston Flyer
TTITLE3=Cardigan Bay
TTITLE4=Sheepstealer Mc Kenzie
TTITLE5=Arawata Bill
TTITLE6=The Old Country Pub
TTITLE7=Streamline Motor Bike
TTITLE8=Dam The Clutha
TTITLE9=The Ballard Of Snoe Quinn
TTITLE10=The Great Snow Storm
TTITLE11=The Flood
EXTD=
EXTT0=
EXTT1=
EXTT2=
EXTT3=
EXTT4=
EXTT5=
EXTT6=
EXTT7=
EXTT8=
EXTT9=
EXTT10=
EXTT11=
PLAYORDER=
